<svg width="12" height="12" viewBox="0 0 12 12" fill="none" xmlns="http://www.w3.org/2000/svg">
<path d="M5.73753 -9.02702e-09C2.57391 -9.02702e-09 0 1.93275 0 4.30877C0 5.64931 0.819035 6.89875 2.211 7.71136L0.500065 10.4539C0.411482 10.596 0.433628 10.781 0.553286 10.8982C0.621867 10.9654 0.712235 11 0.803319 11C0.870827 11 0.938693 10.9804 0.998701 10.9418L4.66739 8.54039C5.02565 8.59112 5.38499 8.61683 5.73682 8.61683C8.90009 8.61683 11.4743 6.68408 11.4743 4.30806C11.4743 1.93204 8.9008 -9.02702e-09 5.73753 -9.02702e-09ZM5.73753 7.90281C5.3782 7.90281 5.00958 7.87317 4.64275 7.81459C4.55559 7.8003 4.46522 7.81994 4.39057 7.86781L1.96454 9.45551L3.01825 7.76601C3.07147 7.681 3.08612 7.57706 3.05897 7.4799C3.03182 7.3831 2.96467 7.30202 2.87466 7.25737C1.52163 6.58121 0.714021 5.47893 0.714021 4.30806C0.714021 2.32637 2.96753 0.713664 5.73717 0.713664C8.50682 0.713664 10.76 2.32602 10.76 4.30806C10.76 6.29046 8.50682 7.90281 5.73753 7.90281Z" transform="translate(0 0.698059)" fill="#828282"/>
</svg>
