<svg width="16" height="10" viewBox="0 0 16 10" fill="none" xmlns="http://www.w3.org/2000/svg">
<path d="M15.6209 3.75243C14.7298 2.60984 13.5755 1.66474 12.2828 1.01938C10.9633 0.360581 9.54379 0.0187626 8.06192 0.000837445C8.02111 -0.000278999 7.85724 -0.000278999 7.81643 0.000837445C6.3346 0.0187936 4.91504 0.360581 3.59553 1.01938C2.3029 1.66474 1.14865 2.60981 0.25748 3.75243C-0.0858267 4.19259 -0.0858267 4.80741 0.25748 5.24757C1.14862 6.39016 2.3029 7.33526 3.59553 7.98062C4.91504 8.63942 6.33457 8.98124 7.81643 8.99916C7.85724 9.00028 8.02111 9.00028 8.06192 8.99916C9.54376 8.98121 10.9633 8.63942 12.2828 7.98062C13.5755 7.33526 14.7297 6.39019 15.6209 5.24757C15.9642 4.80735 15.9642 4.19259 15.6209 3.75243ZM3.88409 7.40271C2.67709 6.80008 1.59917 5.91747 0.766827 4.8503C0.605966 4.64404 0.605966 4.35596 0.766827 4.1497C1.59914 3.08253 2.67706 2.19992 3.88409 1.59729C4.22691 1.42616 4.57697 1.27817 4.93352 1.15288C4.01624 1.97744 3.43832 3.17241 3.43832 4.49998C3.43832 5.82762 4.01627 7.02268 4.93365 7.84721C4.5771 7.72192 4.22694 7.57387 3.88409 7.40271ZM7.93921 8.35491C5.81356 8.35491 4.08425 6.6256 4.08425 4.49995C4.08425 2.37431 5.81356 0.645026 7.93921 0.645026C10.0649 0.645026 11.7942 2.37434 11.7942 4.49998C11.7942 6.62563 10.0649 8.35491 7.93921 8.35491ZM15.1116 4.85027C14.2793 5.91744 13.2014 6.80005 11.9943 7.40268C11.6519 7.57362 11.3021 7.72096 10.9459 7.84612C11.8626 7.0216 12.4401 5.827 12.4401 4.49995C12.4401 3.17219 11.862 1.97707 10.9446 1.15251C11.3012 1.27783 11.6514 1.42601 11.9944 1.59723C13.2014 2.19986 14.2793 3.08247 15.1116 4.14964C15.2724 4.35593 15.2724 4.64401 15.1116 4.85027Z" transform="translate(0 0.698059)" fill="#828282"/>
<path d="M1.6497 2.64998e-08C0.740048 2.64998e-08 -2.27141e-07 0.740047 -2.27141e-07 1.6497C-2.27141e-07 2.55936 0.740048 3.2994 1.6497 3.2994C2.55936 3.2994 3.2994 2.55936 3.2994 1.6497C3.29943 0.740047 2.55939 2.64998e-08 1.6497 2.64998e-08ZM1.6497 2.65351C1.09622 2.65351 0.645894 2.20324 0.645894 1.6497C0.645894 1.09619 1.09616 0.645925 1.6497 0.645925C2.20318 0.645925 2.65348 1.09619 2.65348 1.6497C2.65351 2.20324 2.20318 2.65351 1.6497 2.65351Z" transform="translate(6.28955 3.54831)" fill="#828282"/>
</svg>
