<svg width="14" height="12" viewBox="0 0 14 12" fill="none" xmlns="http://www.w3.org/2000/svg">
<path d="M8.96475 2.19467H6.76106C4.93851 2.19467 3.45574 3.67745 3.45574 5.5C3.45574 6.99112 2.24235 8.20451 0.751229 8.20451H0.25041C0.0843188 8.20451 -0.05 8.33883 -0.05 8.50492C-0.05 8.67101 0.0843191 8.80533 0.25041 8.80533H0.751229C2.57378 8.80533 4.05656 7.32255 4.05656 5.5C4.05656 4.00888 5.26994 2.79549 6.76106 2.79549H8.96475V4.99017V5.08836L9.04416 5.0306L12.4748 2.53552L12.5304 2.49508L12.4748 2.45465L9.04416 -0.0404363L8.96475 -0.0981906V0V2.19467ZM9.56557 3.90837V1.08179L11.509 2.49508L9.56557 3.90837Z" transform="translate(1 0.698059)" fill="#828282" stroke="#828282" stroke-width="0.1"/>
<path d="M2.95562 0.791344L2.95564 0.791356C3.07914 0.901938 3.0896 1.09176 2.97912 1.21547L2.95562 0.791344ZM2.95562 0.791344C2.34921 0.248749 1.56632 -0.0499999 0.751229 -0.0499999H0.25041C0.0843189 -0.0499999 -0.05 0.084319 -0.05 0.25041C-0.05 0.416501 0.0843189 0.55082 0.25041 0.55082H0.751229M2.95562 0.791344L0.751229 0.55082M0.751229 0.55082C1.41831 0.55082 2.05875 0.795206 2.55488 1.23897M0.751229 0.55082L2.55488 1.23897M2.55488 1.23897C2.61225 1.29033 2.68411 1.31557 2.75526 1.31557M2.55488 1.23897L2.75526 1.31557M2.75526 1.31557C2.8374 1.31557 2.91983 1.28197 2.9791 1.21549L2.75526 1.31557Z" transform="translate(1 2.94273)" fill="#828282" stroke="#828282" stroke-width="0.1"/>
<path d="M0.0250894 1.54577L0.0250999 1.54576C0.135219 1.42093 0.325365 1.40931 0.449065 1.51911M0.0250894 1.54577L0.415922 1.55655M0.0250894 1.54577C-0.0845164 1.67009 -0.0728771 1.85994 0.0517969 1.96965C0.655432 2.50235 1.43221 2.79549 2.23866 2.79549H4.44234V4.99017V5.08836L4.52175 5.0306L7.95237 2.53552L8.00797 2.49508L7.95237 2.45465L4.5215 -0.0404374L4.44209 -0.0981865V0V2.19467M0.0250894 1.54577L4.49209 2.19467H4.44209M0.449065 1.51911C0.449085 1.51913 0.449104 1.51914 0.449124 1.51916L0.415922 1.55655M0.449065 1.51911C0.449045 1.51909 0.449026 1.51907 0.449006 1.51906L0.415922 1.55655M0.449065 1.51911C0.942717 1.95472 1.57823 2.19467 2.2384 2.19467H4.44209M0.415922 1.55655C0.918745 2.00027 1.56605 2.24467 2.2384 2.24467H4.44209V2.19467M5.04291 3.90837V1.08179L6.9863 2.49508L5.04291 3.90837Z" transform="translate(5.52271 6.70789)" fill="#828282" stroke="#828282" stroke-width="0.1"/>
</svg>
