<svg width="18" height="17" viewBox="0 0 18 17" fill="none" xmlns="http://www.w3.org/2000/svg">
<path d="M1.58514 16.9833C1.62067 16.9877 1.65734 16.995 1.69344 17H15.246C15.3343 16.9855 15.4226 16.9727 15.5098 16.9538C16.2016 16.8061 16.7668 16.2272 16.9023 15.529C16.9162 15.4527 16.9272 15.3769 16.9395 15.3011V1.69886C16.9278 1.62476 16.9172 1.54952 16.9034 1.47542C16.7545 0.713713 16.1283 0.122535 15.3598 0.0166922C15.3276 0.0127721 15.2971 0.00556418 15.2654 1.54364e-07H1.67397C1.59238 0.0150483 1.50959 0.026176 1.42914 0.0445752C0.678436 0.216175 0.123237 0.822401 0.016066 1.58575C0.0116557 1.61749 0.00497736 1.64929 -1.92275e-08 1.68103V15.32C0.0155622 15.4058 0.0277221 15.4933 0.0471906 15.5791C0.213208 16.3158 0.839476 16.8869 1.58514 16.9833ZM12.1318 2.07279C12.1318 1.6878 12.436 1.38076 12.818 1.38019C13.3516 1.37963 13.8852 1.38019 14.4187 1.38019C14.8013 1.38076 15.105 1.68666 15.105 2.07165C15.105 2.6082 15.105 3.14538 15.105 3.68193C15.105 4.04246 14.8129 4.35113 14.4542 4.36005C14.1749 4.36675 13.8957 4.36119 13.617 4.36119V4.36454C13.3599 4.36454 13.1023 4.36511 12.8452 4.36511C12.5288 4.36346 12.27 4.18959 12.174 3.90652C12.149 3.83128 12.134 3.74883 12.1335 3.66916C12.1296 3.13704 12.1312 2.60491 12.1318 2.07279ZM8.46948 5.05486C10.3917 5.05372 11.9419 6.64731 11.9002 8.57518C11.8597 10.4457 10.3084 11.9835 8.3906 11.9423C6.5472 11.9027 5.00983 10.3755 5.03698 8.44759C5.06313 6.57105 6.59055 5.05378 8.46948 5.05486ZM1.83224 6.93872V6.89301C2.37358 6.89301 2.90773 6.89301 3.44516 6.89301C3.02543 8.3339 3.13978 9.72244 3.85545 11.0447C4.3363 11.9322 5.02476 12.6204 5.90147 13.1135C7.63656 14.0908 9.78918 13.9928 11.4238 12.875C12.0539 12.4443 12.5698 11.9022 12.9668 11.2491C13.3638 10.5961 13.608 9.88955 13.6974 9.13013C13.7868 8.3707 13.7168 7.62569 13.4887 6.89358H15.1055V6.94593C15.1055 9.45777 15.1061 11.9713 15.1055 14.4836C15.1055 14.8486 14.7952 15.1589 14.4309 15.1589C10.4555 15.1595 6.48061 15.1595 2.50513 15.1589C2.14424 15.1589 1.83218 14.8475 1.83218 14.4858C1.83167 11.9702 1.83224 9.45448 1.83224 6.93872Z" transform="translate(0.608887)" fill="#828282"/>
</svg>
