<svg width="18" height="17" viewBox="0 0 18 17" fill="none" xmlns="http://www.w3.org/2000/svg">
<path d="M8.46973 17C13.1474 17 16.9395 13.1944 16.9395 8.5C16.9395 3.80558 13.1474 0 8.46973 0C3.79203 0 0 3.80558 0 8.5C0 13.1944 3.79203 17 8.46973 17Z" transform="translate(0.243896)" fill="#828282"/>
<path d="M5.63996 6.98298C5.23301 7.3781 4.83269 7.76989 4.43236 8.16169C4.2934 8.29782 4.1379 8.37419 3.93609 8.36423C3.80044 8.35759 3.72434 8.29782 3.68133 8.16833C3.37695 7.21872 3.06595 6.26911 2.76157 5.31618C2.7318 5.22321 2.68879 5.18005 2.59615 5.15017C1.87821 4.93103 1.15696 4.70525 0.442322 4.47614C0.333141 4.43962 0.220653 4.39646 0.124706 4.33005C-0.0241756 4.23044 -0.0440265 4.06775 0.088313 3.94821C0.210727 3.83864 0.356301 3.74568 0.508491 3.68591C1.38855 3.33728 2.27192 2.99861 3.15528 2.65661C5.39513 1.79001 7.63498 0.92009 9.87482 0.0534883C10.3016 -0.112527 10.6292 0.119894 10.5828 0.584738C10.5531 0.880246 10.477 1.17243 10.4174 1.46462C9.93107 3.76892 9.44472 6.07653 8.95506 8.38083C8.83927 8.92868 8.45548 9.07146 8.00884 8.73942C7.25781 8.18493 6.50678 7.62712 5.75575 7.06931C5.71936 7.03943 5.68297 7.01286 5.63996 6.98298ZM3.95263 7.68357C3.96255 7.68025 3.96917 7.68024 3.9791 7.67692C3.9824 7.65368 3.98902 7.63376 3.99233 7.61384C4.04196 7.09255 4.09158 6.56794 4.13459 6.04665C4.14452 5.93044 4.18422 5.84743 4.27024 5.76775C4.96172 5.14685 5.65319 4.51931 6.34136 3.89509C7.10562 3.20446 7.86988 2.51384 8.63083 1.81989C8.67715 1.77673 8.697 1.70368 8.73009 1.64392C8.6573 1.63728 8.5812 1.60739 8.51503 1.624C8.4257 1.64724 8.34299 1.70036 8.26359 1.75017C6.57957 2.81599 4.89224 3.88181 3.20822 4.94763C3.11227 5.00739 3.09573 5.0572 3.13212 5.16345C3.25785 5.52204 3.37033 5.88396 3.48613 6.24587C3.64163 6.724 3.79713 7.20544 3.95263 7.68357Z" transform="translate(2.75623 4.04346)" fill="#0E140E"/>
</svg>
