<svg width="23" height="17" viewBox="0 0 23 17" fill="none" xmlns="http://www.w3.org/2000/svg">
<path d="M20.8638 0.313412C20.0132 0.805561 19.0715 1.1627 18.0684 1.35545C17.2657 0.521456 16.1215 -2.46722e-08 14.8553 -2.46722e-08C12.4245 -2.46722e-08 10.4537 1.9215 10.4537 4.29184C10.4537 4.62775 10.4924 4.95511 10.5678 5.2698C6.90909 5.09059 3.6651 3.38232 1.49388 0.785619C1.11498 1.41918 0.898067 2.15636 0.898067 2.9436C0.898067 4.43237 1.67506 5.74619 2.85632 6.51564C2.13502 6.49314 1.45601 6.29991 0.86234 5.97848C0.861926 5.99634 0.861926 6.0146 0.861926 6.03285C0.861926 8.11187 2.37937 9.84608 4.39338 10.241C4.02403 10.3387 3.63511 10.3913 3.23348 10.3913C2.94954 10.3913 2.67381 10.3646 2.40507 10.314C2.96564 12.019 4.59109 13.2602 6.51714 13.2946C5.01054 14.4457 3.11283 15.132 1.05009 15.132C0.69511 15.132 0.34448 15.1116 3.79596e-08 15.0717C1.94864 16.29 4.26229 17 6.74801 17C14.8454 17 19.2728 10.4606 19.2728 4.78911C19.2728 4.60309 19.2688 4.41755 19.2606 4.23329C20.1204 3.62944 20.8669 2.87319 21.4567 2.01246C20.6678 2.3543 19.819 2.58484 18.9283 2.68806C19.8377 2.15717 20.535 1.31644 20.8638 0.313412Z" transform="translate(0.887085)" fill="#828282"/>
</svg>
