<svg width="18" height="17" viewBox="0 0 18 17" fill="none" xmlns="http://www.w3.org/2000/svg">
<path d="M16.9395 13.185C16.9395 15.2934 15.2356 17 13.138 17H3.80145C1.70387 17 0 15.29 0 13.185V3.81504C0 1.70996 1.70387 0 3.80145 0H13.138C15.2356 0 16.9395 1.70996 16.9395 3.81504V13.185Z" transform="translate(0.0705566)" fill="#828282"/>
<path d="M5.34906 6.23042H6.00083C6.00083 6.23042 6.19934 6.20718 6.29859 6.10093C6.39123 6.00132 6.38792 5.81206 6.38792 5.81206C6.38792 5.81206 6.37469 4.93218 6.78163 4.80268C7.18196 4.67319 7.69809 5.65268 8.24399 6.02788C8.65755 6.31343 8.97185 6.25034 8.97185 6.25034L10.4309 6.23042C10.4309 6.23042 11.1952 6.18393 10.8312 5.57964C10.8014 5.52983 10.6195 5.13472 9.74604 4.32124C8.8329 3.47124 8.95531 3.60737 10.057 2.13315C10.7287 1.23667 10.9966 0.688817 10.9139 0.453075C10.8345 0.230614 10.3416 0.29038 10.3416 0.29038L8.69725 0.300341C8.69725 0.300341 8.57483 0.283739 8.48551 0.336864C8.39618 0.389989 8.33993 0.512841 8.33993 0.512841C8.33993 0.512841 8.07856 1.20679 7.73117 1.7978C6.99999 3.04624 6.70885 3.10933 6.58643 3.03296C6.30852 2.85034 6.378 2.30913 6.378 1.92065C6.378 0.71206 6.55997 0.210693 6.02068 0.0778802C5.84202 0.0347161 5.70968 0.00483321 5.25311 0.0015129C4.66751 -0.00512773 4.17124 0.00483312 3.89001 0.140966C3.70474 0.233935 3.55917 0.436474 3.64519 0.449755C3.75437 0.463036 3.99919 0.516161 4.13153 0.695458C4.30027 0.92456 4.29365 1.44253 4.29365 1.44253C4.29365 1.44253 4.3896 2.86362 4.06867 3.04292C3.847 3.16577 3.54262 2.91675 2.89085 1.78452C2.55669 1.20679 2.30525 0.565966 2.30525 0.565966C2.30525 0.565966 2.25562 0.446435 2.1696 0.383349C2.06373 0.306982 1.91816 0.280419 1.91816 0.280419L0.356549 0.29038C0.356549 0.29038 0.121646 0.297021 0.0356252 0.39995C-0.04047 0.489599 0.0290081 0.678856 0.0290081 0.678856C0.0290081 0.678856 1.24984 3.54761 2.6361 4.99526C3.90656 6.31675 5.34906 6.23042 5.34906 6.23042Z" transform="translate(3.07544 5.37061)" fill="#0E140E"/>
</svg>
