<svg width="24" height="17" viewBox="0 0 24 17" fill="none" xmlns="http://www.w3.org/2000/svg">
<path d="M21.4627 1.2679C20.6035 0.305997 19.6412 0.300293 19.1999 0.245804C16.039 1.43155e-07 11.298 -5.31392e-07 11.298 -5.31392e-07H11.2874C11.2874 -5.31392e-07 6.54628 1.43155e-07 3.3861 0.245804C2.94487 0.300368 1.98324 0.305997 1.12329 1.2679C0.446922 2.0017 0.22593 3.66844 0.22593 3.66844C0.22593 3.66844 -2.19173e-07 5.62414 -2.19173e-07 7.57991V9.41304C-2.19173e-07 11.3702 0.22593 13.3252 0.22593 13.3252C0.22593 13.3252 0.446249 14.9912 1.12329 15.7235C1.98324 16.6854 3.11072 16.6564 3.61346 16.757C5.42022 16.9427 11.293 17 11.293 17C11.293 17 16.039 16.9915 19.1998 16.7486C19.6411 16.6919 20.6035 16.6863 21.4627 15.7243C22.139 14.9919 22.36 13.3259 22.36 13.3259C22.36 13.3259 22.586 11.3702 22.586 9.41379V7.58058C22.586 5.62421 22.36 3.66844 22.36 3.66844C22.36 3.66844 22.1399 2.00178 21.4627 1.2679ZM8.47237 12.75V4.25004L15.5328 8.50008L8.47237 12.75Z" transform="translate(0.42334)" fill="#828282"/>
</svg>
