<svg width="10" height="9" viewBox="0 0 10 9" fill="none" xmlns="http://www.w3.org/2000/svg">
<path d="M2.52931 5.05087C3.92587 5.05087 5.05862 3.9181 5.05862 2.52156C5.05862 1.12502 3.92585 -6.39811e-10 2.52931 -6.39811e-10C1.13277 -6.39811e-10 -8.18958e-09 1.13277 -8.18958e-09 2.52156C-8.18958e-09 3.91035 1.13275 5.05087 2.52931 5.05087ZM2.52931 0.659486C3.55344 0.659486 4.39138 1.49741 4.39138 2.52156C4.39138 3.54571 3.55344 4.38362 2.52931 4.38362C1.50518 4.38362 0.667234 3.54569 0.667234 2.52154C0.667234 1.4974 1.50516 0.659486 2.52931 0.659486Z" transform="translate(2.18018)" fill="#C4C4C4"/>
<path d="M0.333617 3.5069H9.11638C9.30259 3.5069 9.45 3.35949 9.45 3.17328C9.45 1.42759 8.03018 -8.59906e-08 6.27672 -8.59906e-08H3.17328C1.42759 -8.59906e-08 0 1.41982 0 3.17328C0 3.35949 0.147411 3.5069 0.333617 3.5069ZM3.17328 0.667235H6.27672C7.54913 0.667235 8.59654 1.61379 8.75949 2.83965H0.690514C0.85344 1.62156 1.90087 0.667235 3.17328 0.667235Z" transform="translate(0 5.4931)" fill="#C4C4C4"/>
</svg>
