<svg width="9" height="9" viewBox="0 0 9 9" fill="none" xmlns="http://www.w3.org/2000/svg">
<path d="M8.53938 3.55525L7.90767 3.44809C7.84186 3.23564 7.75726 3.03071 7.65385 2.83518L8.02611 2.31439C8.18404 2.09254 8.1596 1.78985 7.96595 1.59808L7.40568 1.03781C7.3004 0.932526 7.16127 0.874243 7.01274 0.874243C6.89618 0.874243 6.78525 0.909964 6.69125 0.977648L6.16858 1.34991C5.96553 1.24274 5.75308 1.15438 5.53311 1.08857L5.42783 0.464383C5.3827 0.19553 5.15145 0 4.87884 0H4.08732C3.81471 0 3.58346 0.19553 3.53833 0.464383L3.42929 1.10361C3.21872 1.16942 3.01379 1.2559 2.81826 1.36119L2.30123 0.988928C2.20723 0.921245 2.09442 0.885523 1.97786 0.885523C1.82933 0.885523 1.68832 0.943806 1.58492 1.04909L1.02277 1.60936C0.831001 1.80113 0.804679 2.10382 0.962607 2.32567L1.33863 2.85398C1.23522 3.05139 1.1525 3.25632 1.08857 3.46877L0.464383 3.57405C0.19553 3.61918 0 3.85043 0 4.12304V4.91456C0 5.18717 0.19553 5.41843 0.464383 5.46355L1.10361 5.57259C1.16942 5.78316 1.2559 5.98809 1.36119 6.18362L0.990808 6.69877C0.832881 6.92062 0.857322 7.22331 1.05097 7.41508L1.61124 7.97535C1.71652 8.08063 1.85565 8.13892 2.00418 8.13892C2.12074 8.13892 2.23167 8.1032 2.32567 8.03551L2.85398 7.65949C3.04387 7.75914 3.24316 7.83998 3.44809 7.90391L3.55337 8.53562C3.5985 8.80447 3.82975 9 4.10236 9H4.89576C5.16837 9 5.39962 8.80447 5.44475 8.53562L5.55191 7.90391C5.76436 7.8381 5.96929 7.7535 6.16482 7.65009L6.68561 8.02235C6.77961 8.09003 6.89242 8.12576 7.00898 8.12576C7.15751 8.12576 7.29664 8.06747 7.40192 7.96219L7.96219 7.40192C8.15396 7.21015 8.18028 6.90746 8.02235 6.68561L7.65009 6.16294C7.7535 5.96553 7.83998 5.7606 7.90391 5.55003L8.53562 5.44475C8.80447 5.39962 9 5.16837 9 4.89576V4.10424C9.00376 3.83163 8.80823 3.60038 8.53938 3.55525ZM8.49613 4.89576C8.49613 4.9202 8.47921 4.94088 8.45477 4.94464L7.66513 5.07625C7.56549 5.09317 7.48653 5.16649 7.46208 5.26238C7.39064 5.53875 7.2816 5.80384 7.13495 6.05014C7.08419 6.13662 7.08795 6.24378 7.14623 6.32651L7.61061 6.98078C7.62377 6.99958 7.62189 7.02778 7.60497 7.0447L7.0447 7.60497C7.03154 7.61813 7.01838 7.62001 7.00898 7.62001C6.9977 7.62001 6.9883 7.61625 6.98078 7.61061L6.32839 7.14623C6.24755 7.08795 6.1385 7.08419 6.05202 7.13495C5.80572 7.2816 5.54063 7.39064 5.26426 7.46208C5.16649 7.48653 5.09317 7.56737 5.07813 7.66513L4.94464 8.45477C4.94088 8.47921 4.9202 8.49613 4.89576 8.49613H4.10424C4.0798 8.49613 4.05912 8.47921 4.05536 8.45477L3.92375 7.66513C3.90683 7.56549 3.83351 7.48653 3.73762 7.46208C3.46877 7.39252 3.20932 7.28536 2.96678 7.14623C2.9273 7.12367 2.88218 7.11239 2.83894 7.11239C2.78818 7.11239 2.73553 7.12743 2.69229 7.15939L2.03426 7.62753C2.02486 7.63317 2.01546 7.63693 2.00606 7.63693C1.99854 7.63693 1.9835 7.63505 1.97034 7.62189L1.41007 7.06163C1.39315 7.0447 1.39127 7.01838 1.40443 6.9977L1.86693 6.34907C1.92521 6.26635 1.92897 6.1573 1.87821 6.07082C1.73156 5.8264 1.61876 5.56131 1.54732 5.28494C1.52099 5.18905 1.44203 5.11573 1.34427 5.09881L0.548987 4.96344C0.524546 4.95968 0.507625 4.939 0.507625 4.91456V4.12304C0.507625 4.0986 0.524546 4.07792 0.548987 4.07416L1.33299 3.94255C1.43263 3.92563 1.51347 3.85231 1.53792 3.75454C1.60748 3.47817 1.71464 3.2112 1.85941 2.9649C1.91017 2.87842 1.90453 2.77126 1.84625 2.69041L1.37811 2.03238C1.36495 2.01358 1.36683 1.98538 1.38375 1.96846L1.94402 1.40819C1.95718 1.39503 1.97034 1.39315 1.97974 1.39315C1.99102 1.39315 2.00042 1.39691 2.00794 1.40255L2.65657 1.86505C2.73929 1.92333 2.84834 1.92709 2.93482 1.87633C3.17924 1.72968 3.44433 1.61688 3.7207 1.54544C3.81659 1.51911 3.88991 1.44015 3.90683 1.34239L4.0422 0.547107C4.04596 0.522666 4.06664 0.505745 4.09108 0.505745H4.8826C4.90704 0.505745 4.92772 0.522666 4.93148 0.547107L5.06309 1.33111C5.08001 1.43075 5.15333 1.51159 5.2511 1.53603C5.53499 1.60748 5.80572 1.7184 6.05766 1.86693C6.14414 1.91769 6.25131 1.91393 6.33403 1.85565L6.98266 1.38939C6.99206 1.38375 7.00146 1.37999 7.01086 1.37999C7.01838 1.37999 7.03342 1.38187 7.04658 1.39503L7.60685 1.9553C7.62377 1.97222 7.62565 1.99854 7.61249 2.01922L7.14811 2.67161C7.08983 2.75245 7.08607 2.8615 7.13683 2.94798C7.28348 3.19428 7.39252 3.45937 7.46396 3.73574C7.48841 3.83351 7.56925 3.90683 7.66701 3.92187L8.45665 4.05536C8.48109 4.05912 8.49802 4.0798 8.49802 4.10424V4.89576H8.49613Z" fill="#C4C4C4"/>
<path d="M1.94213 0C0.870482 0 0 0.870482 0 1.94213C0 3.01379 0.870482 3.88427 1.94213 3.88427C3.01379 3.88427 3.88427 3.01379 3.88427 1.94213C3.88427 0.870482 3.01379 0 1.94213 0ZM1.94213 3.37665C1.15062 3.37665 0.507625 2.73365 0.507625 1.94213C0.507625 1.15062 1.15062 0.507625 1.94213 0.507625C2.73365 0.507625 3.37665 1.15062 3.37665 1.94213C3.37665 2.73365 2.73365 3.37665 1.94213 3.37665Z" transform="translate(2.55859 2.55695)" fill="#C4C4C4"/>
<path d="M1.94213 0C0.870482 0 0 0.870482 0 1.94213C0 3.01379 0.870482 3.88427 1.94213 3.88427C3.01379 3.88427 3.88427 3.01379 3.88427 1.94213C3.88427 0.870482 3.01379 0 1.94213 0ZM1.94213 3.37665C1.15062 3.37665 0.507625 2.73365 0.507625 1.94213C0.507625 1.15062 1.15062 0.507625 1.94213 0.507625C2.73365 0.507625 3.37665 1.15062 3.37665 1.94213C3.37665 2.73365 2.73365 3.37665 1.94213 3.37665Z" transform="translate(2.55859 2.55695)" stroke="#C4C4C4"/>
</svg>
