<svg width="14" height="14" viewBox="0 0 14 14" fill="none" xmlns="http://www.w3.org/2000/svg">
<path d="M6.93198 -1.10255e-08C3.10974 -1.10255e-08 0 2.36065 0 5.26271C0 6.90002 0.989542 8.42609 2.67129 9.4186L0.604169 12.7683C0.497145 12.9419 0.523901 13.1679 0.66847 13.311C0.751327 13.393 0.860509 13.4353 0.970554 13.4353C1.05212 13.4353 1.13411 13.4113 1.20661 13.3642L5.63905 10.4312C6.0719 10.4931 6.50604 10.5245 6.93111 10.5245C10.7529 10.5245 13.8631 8.16389 13.8631 5.26184C13.8631 2.35978 10.7538 -1.10255e-08 6.93198 -1.10255e-08ZM6.93198 9.65244C6.49784 9.65244 6.05248 9.61623 5.60928 9.54468C5.50398 9.52723 5.3948 9.55123 5.3046 9.60969L2.37352 11.5489L3.64659 9.48535C3.71089 9.38152 3.72859 9.25457 3.69579 9.1359C3.66299 9.01767 3.58186 8.91864 3.47311 8.86411C1.8384 8.03825 0.862667 6.69192 0.862667 5.26184C0.862667 2.84142 3.58531 0.871665 6.93154 0.871665C10.2778 0.871665 13 2.84098 13 5.26184C13 7.68313 10.2778 9.65244 6.93198 9.65244Z" fill="#828282"/>
</svg>
