<svg width="20" height="12" viewBox="0 0 20 12" fill="none" xmlns="http://www.w3.org/2000/svg">
<path d="M18.8729 4.5832C17.7962 3.18765 16.4016 2.03331 14.8399 1.24506C13.2457 0.440411 11.5306 0.0229165 9.74026 0.00102285C9.69095 -0.000340768 9.49297 -0.000340768 9.44366 0.00102285C7.65334 0.0229544 5.93826 0.440411 4.34404 1.24506C2.78232 2.03331 1.38778 3.18761 0.311082 4.5832C-0.103694 5.1208 -0.103694 5.87174 0.311082 6.40934C1.38774 7.80489 2.78232 8.95924 4.34404 9.74748C5.93826 10.5521 7.6533 10.9696 9.44366 10.9915C9.49297 10.9929 9.69095 10.9929 9.74026 10.9915C11.5306 10.9696 13.2457 10.5521 14.8399 9.74748C16.4016 8.95924 17.7962 7.80493 18.8729 6.40934C19.2877 5.87166 19.2877 5.1208 18.8729 4.5832ZM4.69269 9.04162C3.23441 8.30557 1.93208 7.22755 0.926465 5.92412C0.732116 5.6722 0.732116 5.32034 0.926465 5.06842C1.93205 3.76499 3.23438 2.68697 4.69269 1.95092C5.10687 1.74191 5.52981 1.56115 5.96059 1.40813C4.85234 2.41523 4.15412 3.87476 4.15412 5.49625C4.15412 7.11782 4.85238 8.57746 5.96074 9.58453C5.52996 9.4315 5.1069 9.25067 4.69269 9.04162ZM9.592 10.2046C7.02383 10.2046 4.93451 8.09247 4.93451 5.49621C4.93451 2.89996 7.02383 0.78783 9.592 0.78783C12.1602 0.78783 14.2495 2.9 14.2495 5.49625C14.2495 8.0925 12.1602 10.2046 9.592 10.2046ZM18.2575 5.92409C17.252 7.22752 15.9496 8.30553 14.4913 9.04158C14.0776 9.25037 13.6549 9.43033 13.2247 9.5832C14.3322 8.57613 15.0299 7.11706 15.0299 5.49621C15.0299 3.87449 14.3315 2.41478 13.223 1.40767C13.6539 1.56074 14.0771 1.74172 14.4913 1.95084C15.9496 2.6869 17.252 3.76491 18.2576 5.06834C18.4519 5.32031 18.4519 5.67216 18.2575 5.92409Z" transform="translate(0.658203 0.255554)" fill="#828282"/>
<path d="M1.99314 3.23667e-08C0.894111 3.23667e-08 -2.74428e-07 0.903889 -2.74428e-07 2.01493C-2.74428e-07 3.12598 0.894111 4.02987 1.99314 4.02987C3.09216 4.02987 3.98628 3.12598 3.98628 2.01493C3.98631 0.903889 3.0922 3.23667e-08 1.99314 3.23667e-08ZM1.99314 3.24098C1.32444 3.24098 0.780357 2.69102 0.780357 2.01493C0.780357 1.33888 1.32436 0.788929 1.99314 0.788929C2.66184 0.788929 3.20588 1.33888 3.20588 2.01493C3.20592 2.69102 2.66184 3.24098 1.99314 3.24098Z" transform="translate(8.25708 3.73688)" fill="#828282"/>
</svg>
