<svg width="16" height="15" viewBox="0 0 16 15" fill="none" xmlns="http://www.w3.org/2000/svg">
<path d="M10.8415 2.69163H8.16859C5.97185 2.69163 4.18556 4.49824 4.18556 6.71766C4.18556 8.54554 2.7144 10.032 0.907621 10.032H0.30254C0.10711 10.032 -0.05 10.1916 -0.05 10.3878C-0.05 10.5841 0.10711 10.7437 0.30254 10.7437H0.907621C3.10436 10.7437 4.89065 8.93709 4.89065 6.71766C4.89065 4.88979 6.36181 3.40333 8.16859 3.40333H10.8415V6.09495V6.19378L10.9211 6.13524L15.0659 3.08776L15.1207 3.04748L15.0659 3.00719L10.9211 -0.0402834L10.8415 -0.098823V0V2.69163ZM11.5465 4.79476V1.30019L13.9232 3.04748L11.5465 4.79476Z" transform="translate(0.227295 1.03412)" fill="#828282" stroke="#828282" stroke-width="0.1"/>
<path d="M3.59171 1.47702C3.72111 1.33057 3.70892 1.10598 3.5642 0.974985L3.56419 0.974973L3.12706 1.46777L3.0935 1.50484C3.16081 1.56575 3.24519 1.59576 3.32885 1.59576C3.42547 1.59576 3.52222 1.5558 3.59171 1.47702ZM3.59171 1.47702L3.55424 1.44391L3.59175 1.47698C3.59174 1.47699 3.59172 1.47701 3.59171 1.47702Z" transform="translate(0.227295 3.77582)" fill="#828282" stroke="#828282" stroke-width="0.1"/>
<path d="M0.0379426 1.89551L0.0379531 1.8955C0.167188 1.74741 0.390622 1.73357 0.535854 1.8639C1.13421 2.39768 1.90441 2.69163 2.7044 2.69163H5.37726V0V-0.0988189L5.45688 -0.0402845L9.60198 3.00719L9.65677 3.04748L9.60198 3.08776L5.45718 6.13524L5.37756 6.19378V6.09496V3.40333H2.7047C1.73276 3.40333 0.796689 3.04617 0.0693278 2.3973L0.0379426 1.89551ZM0.0379426 1.89551C-0.0903996 2.04268 -0.0768333 2.26728 0.0692655 2.39724L0.0379426 1.89551ZM6.08234 1.30019L8.45901 3.04748L6.08234 4.79476V1.30019Z" transform="translate(5.69141 8.37463)" fill="#828282" stroke="#828282" stroke-width="0.1"/>
</svg>
