<svg width="20" height="19" viewBox="0 0 20 19" fill="none" xmlns="http://www.w3.org/2000/svg">
<path d="M9.52303 19C14.7824 19 19.0461 14.7467 19.0461 9.5C19.0461 4.25329 14.7824 0 9.52303 0C4.2636 0 0 4.25329 0 9.5C0 14.7467 4.2636 19 9.52303 19Z" fill="#828282" fill-opacity="0.5"/>
<path d="M6.34134 7.80451C5.88379 8.24611 5.43368 8.684 4.98357 9.12189C4.82733 9.27404 4.65249 9.35939 4.42558 9.34826C4.27306 9.34083 4.1875 9.27404 4.13914 9.12931C3.79691 8.06798 3.44723 7.00666 3.105 5.94162C3.07152 5.83771 3.02316 5.78947 2.919 5.75607C2.11178 5.51115 1.30083 5.2588 0.497329 5.00275C0.374571 4.96193 0.248093 4.91369 0.140215 4.83947C-0.0271821 4.72814 -0.0495016 4.5463 0.0992956 4.41271C0.236933 4.29025 0.40061 4.18634 0.571727 4.11955C1.56123 3.7299 2.55445 3.35138 3.54767 2.96916C6.06607 2.0006 8.58446 1.02834 11.1029 0.059781C11.5827 -0.125766 11.951 0.133999 11.8989 0.653531C11.8654 0.983804 11.7799 1.31037 11.7129 1.63693C11.1661 4.21232 10.6193 6.79142 10.0687 9.36681C9.93852 9.97912 9.507 10.1387 9.00481 9.76759C8.16039 9.14787 7.31596 8.52443 6.47154 7.90099C6.43062 7.86759 6.3897 7.83791 6.34134 7.80451ZM4.44418 8.58751C4.45534 8.5838 4.46278 8.5838 4.47394 8.58009C4.47766 8.55412 4.4851 8.53185 4.48882 8.50959C4.54461 7.92697 4.60041 7.34064 4.64877 6.75802C4.65993 6.62814 4.70457 6.53537 4.80129 6.4463C5.57876 5.75236 6.35622 5.05099 7.12997 4.35334C7.98927 3.58146 8.84858 2.80959 9.70416 2.034C9.75624 1.98576 9.77856 1.90412 9.81576 1.83732C9.73392 1.8299 9.64836 1.7965 9.57396 1.81505C9.47352 1.84103 9.38053 1.90041 9.29125 1.95607C7.3978 3.14728 5.50064 4.33849 3.60719 5.5297C3.49931 5.5965 3.48071 5.65216 3.52163 5.77091C3.66299 6.17169 3.78947 6.57619 3.91967 6.98068C4.0945 7.51505 4.26934 8.05314 4.44418 8.58751Z" transform="translate(2.82471 4.51953)" fill="white"/>
</svg>
