<svg width="23" height="18" viewBox="0 0 23 18" fill="none" xmlns="http://www.w3.org/2000/svg">
<path d="M22.3645 0.331848C21.4527 0.852947 20.4433 1.23109 19.3681 1.43518C18.5076 0.55213 17.2811 -2.61235e-08 15.9239 -2.61235e-08C13.3182 -2.61235e-08 11.2056 2.03453 11.2056 4.5443C11.2056 4.89997 11.2471 5.24659 11.3279 5.57979C7.40605 5.39004 3.92873 3.58128 1.60133 0.831832C1.19518 1.50266 0.962664 2.28321 0.962664 3.11675C0.962664 4.6931 1.79555 6.0842 3.06177 6.89891C2.28858 6.87509 1.56074 6.6705 0.924367 6.33016C0.923923 6.34906 0.923923 6.3684 0.923923 6.38773C0.923923 8.58904 2.55051 10.4253 4.70939 10.8434C4.31347 10.9469 3.89658 11.0026 3.46606 11.0026C3.16169 11.0026 2.86614 10.9743 2.57807 10.9208C3.17895 12.7259 4.92132 14.0402 6.9859 14.0766C5.37095 15.2955 3.33673 16.0221 1.12563 16.0221C0.745109 16.0221 0.369258 16.0005 4.069e-08 15.9583C2.08881 17.2482 4.56887 18 7.23338 18C15.9132 18 20.659 11.0759 20.659 5.07082C20.659 4.87387 20.6548 4.67741 20.646 4.48231C21.5676 3.84294 22.3679 3.04221 23 2.13084C22.1544 2.49279 21.2445 2.73689 20.2898 2.84618C21.2646 2.28406 22.0121 1.39388 22.3645 0.331848Z" fill="#828282" fill-opacity="0.5"/>
</svg>
