<svg width="26" height="19" viewBox="0 0 26 19" fill="none" xmlns="http://www.w3.org/2000/svg">
<g opacity="0.5">
<path d="M24.1318 1.41706C23.1658 0.341997 22.0837 0.335622 21.5876 0.274722C18.0336 1.59997e-07 12.703 -5.93909e-07 12.703 -5.93909e-07H12.6911C12.6911 -5.93909e-07 7.36037 1.59997e-07 3.8072 0.274722C3.31109 0.335706 2.22988 0.341997 1.26298 1.41706C0.502501 2.2372 0.254027 4.10002 0.254027 4.10002C0.254027 4.10002 -2.4643e-07 6.2858 -2.4643e-07 8.47166V10.5205C-2.4643e-07 12.7078 0.254027 14.8928 0.254027 14.8928C0.254027 14.8928 0.501744 16.7548 1.26298 17.5734C2.22988 18.6484 3.49757 18.616 4.06283 18.7284C6.09428 18.9359 12.6974 19 12.6974 19C12.6974 19 18.0336 18.9905 21.5875 18.719C22.0836 18.6557 23.1657 18.6494 24.1318 17.5742C24.8922 16.7557 25.1407 14.8937 25.1407 14.8937C25.1407 14.8937 25.3947 12.7079 25.3947 10.5213V8.47241C25.3947 6.28588 25.1407 4.10002 25.1407 4.10002C25.1407 4.10002 24.8932 2.23728 24.1318 1.41706ZM9.52599 14.25V4.75004L17.4644 9.50008L9.52599 14.25Z" transform="translate(0.605225)" fill="#828282"/>
</g>
</svg>
