<svg width="20" height="19" viewBox="0 0 20 19" fill="none" xmlns="http://www.w3.org/2000/svg">
<path d="M1.78226 18.9813C1.82222 18.9863 1.86345 18.9944 1.90404 19H17.142C17.2413 18.9838 17.3405 18.9695 17.4386 18.9483C18.2164 18.7833 18.8519 18.1362 19.0043 17.356C19.0198 17.2707 19.0323 17.1859 19.0461 17.1013V1.89873C19.0329 1.81591 19.021 1.73181 19.0055 1.64899C18.8381 0.797679 18.134 0.136951 17.27 0.018656C17.2338 0.0142747 17.1994 0.00621879 17.1638 1.72525e-07H1.88215C1.79041 0.0168187 1.69733 0.0292555 1.60687 0.0498194C0.762806 0.241607 0.138563 0.919155 0.018064 1.77231C0.0131052 1.80778 0.00559634 1.84333 -2.16187e-08 1.8788V17.1223C0.0174975 17.2182 0.0311696 17.316 0.0530592 17.4119C0.239723 18.2353 0.943873 18.8736 1.78226 18.9813ZM13.6405 2.31665C13.6405 1.88636 13.9825 1.54321 14.4121 1.54257C15.012 1.54193 15.6119 1.54257 16.2118 1.54257C16.642 1.54321 16.9834 1.88509 16.9834 2.31538C16.9834 2.91505 16.9834 3.51543 16.9834 4.1151C16.9834 4.51804 16.6551 4.86303 16.2518 4.87299C15.9377 4.88048 15.6238 4.87427 15.3104 4.87427V4.87801C15.0213 4.87801 14.7317 4.87865 14.4427 4.87865C14.0868 4.87681 13.7959 4.68248 13.6879 4.36611C13.6598 4.28201 13.6429 4.18986 13.6424 4.10083C13.638 3.5061 13.6398 2.91137 13.6405 2.31665ZM9.52274 5.64954C11.684 5.64827 13.427 7.42934 13.3801 9.58402C13.3346 11.6746 11.5904 13.3933 9.43405 13.3473C7.36141 13.303 5.63285 11.5961 5.66338 9.44142C5.69278 7.34412 7.41015 5.64834 9.52274 5.64954ZM2.0601 7.75504V7.70395C2.66876 7.70395 3.26934 7.70395 3.87361 7.70395C3.40167 9.31436 3.53024 10.8663 4.33491 12.344C4.87557 13.336 5.64964 14.1052 6.63537 14.6563C8.58624 15.7486 11.0066 15.639 12.8444 14.3897C13.553 13.9084 14.1329 13.3024 14.5793 12.5726C15.0257 11.8427 15.3003 11.053 15.4008 10.2043C15.5014 9.35549 15.4227 8.52283 15.1661 7.70459H16.984V7.7631C16.984 10.5705 16.9847 13.3796 16.984 16.1876C16.984 16.5954 16.6351 16.9423 16.2256 16.9423C11.7558 16.943 7.28654 16.943 2.81667 16.9423C2.4109 16.9423 2.06003 16.5942 2.06003 16.19C2.05946 13.3784 2.0601 10.5668 2.0601 7.75504Z" transform="translate(0.322388)" fill="#828282"/>
</svg>
