<svg width="20" height="19" viewBox="0 0 20 19" fill="none" xmlns="http://www.w3.org/2000/svg">
<path d="M19.0461 14.7361C19.0461 17.0926 17.1303 19 14.7719 19H4.2742C1.91577 19 0 17.0889 0 14.7361V4.26387C0 1.91113 1.91577 0 4.2742 0H14.7719C17.1303 0 19.0461 1.91113 19.0461 4.26387V14.7361Z" transform="translate(0.282898)" fill="#828282"/>
<path d="M6.01427 6.96341H6.74709C6.74709 6.96341 6.97029 6.93743 7.08189 6.81868C7.18605 6.70735 7.18232 6.49583 7.18232 6.49583C7.18232 6.49583 7.16745 5.51243 7.625 5.36771C8.07511 5.22298 8.65542 6.31771 9.26921 6.73704C9.7342 7.05618 10.0876 6.98567 10.0876 6.98567L11.7281 6.96341C11.7281 6.96341 12.5874 6.91146 12.1782 6.23607C12.1447 6.1804 11.9401 5.7388 10.9581 4.82962C9.93135 3.87962 10.069 4.03177 11.3077 2.38411C12.0629 1.38216 12.3642 0.769855 12.2712 0.506378C12.1819 0.257745 11.6276 0.324542 11.6276 0.324542L9.77884 0.335675C9.77884 0.335675 9.6412 0.31712 9.54076 0.376495C9.44032 0.43587 9.37708 0.573175 9.37708 0.573175C9.37708 0.573175 9.08321 1.34876 8.69262 2.00931C7.87051 3.40462 7.54316 3.47513 7.40552 3.38978C7.09305 3.18568 7.17117 2.58079 7.17117 2.14661C7.17117 0.795832 7.37576 0.23548 6.76941 0.0870426C6.56854 0.0388004 6.41974 0.00540183 5.90639 0.00169089C5.24796 -0.00573099 4.68997 0.00540172 4.37378 0.15755C4.16546 0.261456 4.00178 0.487824 4.0985 0.502667C4.22126 0.517511 4.49653 0.576886 4.64533 0.777277C4.83505 1.03333 4.82761 1.61224 4.82761 1.61224C4.82761 1.61224 4.93549 3.20052 4.57465 3.40091C4.32542 3.53821 3.98318 3.25989 3.25036 1.99446C2.87464 1.34876 2.59193 0.63255 2.59193 0.63255C2.59193 0.63255 2.53613 0.498957 2.43941 0.428449C2.32037 0.343097 2.1567 0.313409 2.1567 0.313409L0.400889 0.324542C0.400889 0.324542 0.136774 0.331964 0.0400556 0.447003C-0.0455029 0.547199 0.0326155 0.758722 0.0326155 0.758722C0.0326155 0.758722 1.40527 3.96497 2.96392 5.58294C4.39238 7.05989 6.01427 6.96341 6.01427 6.96341Z" transform="translate(3.66147 6.00256)" fill="white"/>
</svg>
