<svg width="9" height="9" viewBox="0 0 9 9" fill="none" xmlns="http://www.w3.org/2000/svg">
<path d="M4.50028 -7.38574e-09C2.01886 -7.38574e-09 0 1.58134 0 3.52536C0 4.62216 0.642417 5.64443 1.73422 6.30929L0.39223 8.55316C0.322749 8.66947 0.34012 8.82085 0.433975 8.91671C0.487766 8.97165 0.558648 9 0.63009 9C0.683041 9 0.736272 8.98393 0.78334 8.95236L3.66091 6.9876C3.94191 7.02909 4.22376 7.05014 4.49972 7.05014C6.98086 7.05014 9 5.46879 9 3.52478C9 1.58076 6.98142 -7.38574e-09 4.50028 -7.38574e-09ZM4.50028 6.46594C4.21843 6.46594 3.92931 6.44168 3.64158 6.39375C3.57322 6.38206 3.50233 6.39814 3.44378 6.4373L1.5409 7.73633L2.36739 6.35401C2.40913 6.28445 2.42062 6.19941 2.39933 6.11992C2.37804 6.04072 2.32536 5.97438 2.25476 5.93785C1.1935 5.38463 0.560049 4.48276 0.560049 3.52478C0.560049 1.9034 2.32761 0.583907 4.5 0.583907C6.67239 0.583907 8.43967 1.9031 8.43967 3.52478C8.43967 5.14674 6.67239 6.46594 4.50028 6.46594Z" fill="#00DA5F"/>
</svg>
