<svg width="15" height="9" viewBox="0 0 15 9" fill="none" xmlns="http://www.w3.org/2000/svg">
<path d="M14.7568 3.75243C13.9149 2.60984 12.8245 1.66474 11.6033 1.01938C10.3568 0.360581 9.01583 0.0187626 7.61594 0.000837445C7.57739 -0.000278999 7.42258 -0.000278999 7.38403 0.000837445C5.98417 0.0187936 4.64314 0.360581 3.39662 1.01938C2.1755 1.66474 1.08511 2.60981 0.243236 3.75243C-0.0810788 4.19259 -0.0810788 4.80741 0.243236 5.24757C1.08508 6.39016 2.1755 7.33526 3.39662 7.98062C4.64314 8.63942 5.98414 8.98124 7.38403 8.99916C7.42258 9.00028 7.57739 9.00028 7.61594 8.99916C9.0158 8.98121 10.3568 8.63942 11.6033 7.98062C12.8245 7.33526 13.9149 6.39019 14.7568 5.24757C15.0811 4.80735 15.0811 4.19259 14.7568 3.75243ZM3.66923 7.40271C2.529 6.80008 1.5107 5.91747 0.724406 4.8503C0.572444 4.64404 0.572444 4.35596 0.724406 4.1497C1.51067 3.08253 2.52897 2.19992 3.66923 1.59729C3.99308 1.42616 4.32378 1.27817 4.6606 1.15288C3.79406 1.97744 3.24812 3.17241 3.24812 4.49998C3.24812 5.82762 3.79409 7.02268 4.66072 7.84721C4.32389 7.72192 3.9931 7.57387 3.66923 7.40271ZM7.50001 8.35491C5.49196 8.35491 3.85831 6.6256 3.85831 4.49995C3.85831 2.37431 5.49196 0.645026 7.50001 0.645026C9.50807 0.645026 11.1417 2.37434 11.1417 4.49998C11.1417 6.62563 9.50807 8.35491 7.50001 8.35491ZM14.2756 4.85027C13.4894 5.91744 12.4711 6.80005 11.3308 7.40268C11.0073 7.57362 10.6768 7.72096 10.3404 7.84612C11.2064 7.0216 11.7519 5.827 11.7519 4.49995C11.7519 3.17219 11.2058 1.97707 10.3391 1.15251C10.676 1.27783 11.0069 1.42601 11.3308 1.59723C12.4711 2.19986 13.4894 3.08247 14.2757 4.14964C14.4276 4.35593 14.4276 4.64401 14.2756 4.85027Z" fill="#00DA5F"/>
<path d="M1.55844 2.64998e-08C0.699108 2.64998e-08 -2.14576e-07 0.740047 -2.14576e-07 1.6497C-2.14576e-07 2.55936 0.699108 3.2994 1.55844 3.2994C2.41777 3.2994 3.11688 2.55936 3.11688 1.6497C3.11691 0.740047 2.4178 2.64998e-08 1.55844 2.64998e-08ZM1.55844 2.65351C1.03558 2.65351 0.610164 2.20324 0.610164 1.6497C0.610164 1.09619 1.03552 0.645925 1.55844 0.645925C2.0813 0.645925 2.50669 1.09619 2.50669 1.6497C2.50672 2.20324 2.0813 2.65351 1.55844 2.65351Z" transform="translate(5.94141 2.85022)" fill="#00DA5F"/>
</svg>
