<svg width="131" height="125" viewBox="0 0 131 125" fill="none" xmlns="http://www.w3.org/2000/svg">
<path d="M119.974 51.9308C117.052 51.9308 114.683 54.295 114.683 57.2113V62.5297C114.675 76.4031 109.253 89.4431 99.4165 99.2473C89.5872 109.044 76.5255 114.439 62.6339 114.439C62.6237 114.439 62.6134 114.439 62.6032 114.439C33.9029 114.422 10.567 91.1096 10.5834 62.47C10.5913 48.5969 16.013 35.5569 25.8497 25.7522C35.6791 15.9552 48.741 10.5609 62.6324 10.5609C62.6426 10.5609 62.6528 10.5609 62.6631 10.5609C69.9991 10.565 77.1166 12.078 83.8175 15.0573C86.4877 16.2445 89.615 15.0468 90.8048 12.3831C91.994 9.71938 90.7946 6.59788 88.1249 5.41066C80.0612 1.82526 71.4969 0.00485109 62.6689 8.376e-08C62.6556 8.376e-08 62.6454 8.376e-08 62.6321 8.376e-08C45.9171 8.376e-08 30.1976 6.49218 18.3702 18.2806C6.53364 30.0783 0.00973298 45.7698 1.03175e-05 62.4644C-0.00945648 79.1585 6.49603 94.8574 18.3193 106.669C30.1426 118.48 45.8672 124.99 62.5971 125C62.6101 125 62.6206 125 62.6339 125C79.3489 125 95.0684 118.508 106.896 106.719C118.732 94.9215 125.256 79.23 125.266 62.5328V57.2115C125.266 54.295 122.897 51.9308 119.974 51.9308Z" fill="#009D44"/>
<path d="M89.311 1.54645C87.2444 -0.515483 83.894 -0.515483 81.8274 1.54645L22.4938 60.7538L9.03331 47.3218C6.96699 45.2596 3.61625 45.2596 1.54993 47.3218C-0.516645 49.384 -0.516645 52.7274 1.54993 54.7896L18.7524 71.9555C19.7855 72.9867 21.1401 73.5022 22.4943 73.5022C23.8486 73.5022 25.2029 72.9867 26.2363 71.9555L89.311 9.01419C91.3776 6.95201 91.3776 3.60864 89.311 1.54645Z" transform="translate(40.1392 5.75488)" fill="#009D44"/>
</svg>
