<svg width="36" height="27" viewBox="0 0 36 27" fill="none" xmlns="http://www.w3.org/2000/svg">
<path d="M35.1818 0H0.818182C0.365727 0 0 0.365727 0 0.818182V25.3636C0 25.8161 0.365727 26.1818 0.818182 26.1818H35.1818C35.6335 26.1818 36 25.8161 36 25.3636V0.818182C36 0.365727 35.6335 0 35.1818 0ZM34.3636 22.5663L24.228 12.4315L23.0711 13.5884L34.0282 24.5455H1.97182L12.9289 13.5884L11.772 12.4315L1.63636 22.5663V1.63636H34.3636V22.5663Z" fill="white"/>
<path d="M31.0737 0L16.3636 14.7101L1.65355 0H0V0.660273L15.7852 16.4455C16.1051 16.7654 16.6222 16.7654 16.9421 16.4455L32.7273 0.660273V0H31.0737Z" transform="translate(1.63647 1.63635)" fill="white"/>
</svg>
