<svg width="38" height="23" viewBox="0 0 38 23" fill="none" xmlns="http://www.w3.org/2000/svg">
<rect width="38" height="23" rx="3" fill="black" fill-opacity="0.65"/>
<path d="M17.4011 2.18116C17.0418 1.80918 16.5456 1.58937 15.981 1.58937H13.1407V1.55556C13.1407 1.13285 12.9696 0.727053 12.6787 0.456522C12.3878 0.169082 11.9943 0 11.5665 0H6.43346C5.98859 0 5.59506 0.169082 5.30418 0.456522C5.01331 0.743961 4.84221 1.13285 4.84221 1.55556V1.58937H2.01901C1.45437 1.58937 0.958175 1.80918 0.598859 2.18116C0.239544 2.53623 0 3.04348 0 3.58454V12.0048C0 12.5628 0.222433 13.0531 0.598859 13.4082C0.958175 13.7633 1.47148 14 2.01901 14H15.981C16.5456 14 17.0418 13.7802 17.4011 13.4082C17.7605 13.0531 18 12.5459 18 12.0048V3.58454C18 3.02657 17.7776 2.53623 17.4011 2.18116ZM17.1103 12.0048H17.0932C17.0932 12.3092 16.9734 12.5797 16.7681 12.7826C16.5627 12.9855 16.289 13.1039 15.981 13.1039H2.01901C1.71103 13.1039 1.43726 12.9855 1.23194 12.7826C1.02662 12.5797 0.906844 12.3092 0.906844 12.0048V3.58454C0.906844 3.28019 1.02662 3.00966 1.23194 2.80676C1.43726 2.60386 1.71103 2.48551 2.01901 2.48551H5.32129C5.57795 2.48551 5.78327 2.28261 5.78327 2.02899V1.53865C5.78327 1.35266 5.85171 1.18357 5.97148 1.06522C6.09126 0.94686 6.26236 0.879227 6.45057 0.879227H11.5665C11.7548 0.879227 11.9259 0.94686 12.0456 1.06522C12.1654 1.18357 12.2338 1.35266 12.2338 1.53865V2.02899C12.2338 2.28261 12.4392 2.48551 12.6958 2.48551H15.9981C16.3061 2.48551 16.5798 2.60386 16.7852 2.80676C16.9905 3.00966 17.1103 3.28019 17.1103 3.58454V12.0048Z" transform="translate(10 4.00006)" fill="white"/>
<path d="M4.20913 0C3.04563 0 1.98479 0.47343 1.23194 1.21739C0.461977 1.97826 0 3.00966 0 4.15942C0 5.30918 0.479088 6.35749 1.23194 7.10145C2.0019 7.86232 3.04563 8.31884 4.20913 8.31884C5.37262 8.31884 6.43346 7.84541 7.18631 7.10145C7.95627 6.34058 8.41825 5.30918 8.41825 4.15942C8.41825 3.00966 7.93916 1.96135 7.18631 1.21739C6.43346 0.47343 5.37262 0 4.20913 0ZM6.53612 6.47584C5.93726 7.05072 5.11597 7.4227 4.20913 7.4227C3.30228 7.4227 2.48099 7.05072 1.88213 6.47584C1.28327 5.88406 0.923955 5.07246 0.923955 4.17633C0.923955 3.28019 1.30038 2.4686 1.88213 1.87681C2.48099 1.28502 3.30228 0.929952 4.20913 0.929952C5.11597 0.929952 5.93726 1.30193 6.53612 1.87681C7.13498 2.4686 7.4943 3.28019 7.4943 4.17633C7.51141 5.07246 7.13498 5.88406 6.53612 6.47584Z" transform="translate(14.7908 7.63533)" fill="white"/>
<path d="M0.838402 1.65701C1.30144 1.65701 1.67681 1.28607 1.67681 0.828503C1.67681 0.370933 1.30144 0 0.838402 0C0.375365 0 0 0.370933 0 0.828503C0 1.28607 0.375365 1.65701 0.838402 1.65701Z" transform="translate(24.2529 7.61842)" fill="white"/>
</svg>
