<svg width="15" height="15" viewBox="0 0 15 15" fill="none" xmlns="http://www.w3.org/2000/svg">
<path d="M9.58849 2.35689L7.39324 0.112901C7.24849 -0.0353416 7.01124 -0.0378612 6.863 0.106895C6.71476 0.251651 6.71224 0.489395 6.85699 0.637139L8.43475 2.25014H0.375C0.167988 2.2499 0 2.41789 0 2.6249C0 2.83191 0.167988 2.9999 0.375 2.9999H8.43451L6.85702 4.6129C6.71227 4.76064 6.71479 4.99839 6.86303 5.14314C7.01127 5.2879 7.24852 5.28538 7.39327 5.13714L9.59429 2.88714C9.73898 2.73939 9.73649 2.50165 9.58849 2.35689Z" transform="translate(0 4.87512)" fill="#F2F2F2"/>
<path d="M10.125 0H0.375C0.167988 0 1.78814e-07 0.167988 1.78814e-07 0.375V5.625H0.75V0.75H9.75V14.25H0.75V9.375H1.78814e-07V14.625C1.78814e-07 14.832 0.167988 15 0.375 15H10.125C10.332 15 10.5 14.832 10.5 14.625V0.375C10.5 0.167988 10.332 0 10.125 0Z" transform="translate(4.5)" fill="#F2F2F2"/>
</svg>
