<svg width="10" height="10" viewBox="0 0 10 10" fill="none" xmlns="http://www.w3.org/2000/svg">
<path d="M5.14924 1.22167L3.97884 0.0252815L5.14924 1.22167ZM3.62135 0.3748L4.37968 1.15007H0.200057H0.2V1.20007C0.0895938 1.19995 0 1.28954 0 1.39995C0 1.51035 0.0895938 1.59995 0.2 1.59995L3.62135 0.3748ZM4.37957 1.64995L3.62136 2.42522L4.37957 1.64995Z" transform="translate(1 3.60004)" fill="#C4C4C4" stroke="#C4C4C4" stroke-width="0.1"/>
<path d="M-0.0499999 3V3.05H0H0.4H0.45V3V0.45H5.15V7.55H0.45V5V4.95H0.4H0H-0.0499999V5V7.8C-0.0499999 7.93802 0.0619794 8.05 0.2 8.05H5.4C5.53802 8.05 5.65 7.93802 5.65 7.8V0.2C5.65 0.0619796 5.53802 -0.05 5.4 -0.05H0.2C0.0619793 -0.05 -0.0499999 0.0619796 -0.0499999 0.2V3Z" transform="translate(3.3999 1)" fill="#C4C4C4" stroke="#C4C4C4" stroke-width="0.1"/>
</svg>
