<svg width="31" height="19" viewBox="0 0 31 19" fill="none" xmlns="http://www.w3.org/2000/svg">
<path d="M6.87887 19C3.08054 19 0 15.8937 0 12.0635C0 10.6159 1.07669 8.4746 2.00384 6.90635C2.48238 6.12222 3.02072 5.24762 3.64879 4.3127C4.4264 3.19683 5.26383 2.02063 6.19098 0.844444L6.87887 0L7.56676 0.844444C8.49391 2.02063 9.36125 3.19683 10.1089 4.3127C10.737 5.21746 11.2754 6.09206 11.7539 6.90635C12.6511 8.44444 13.7278 10.6159 13.7278 12.0635C13.7577 15.8937 10.6772 19 6.87887 19ZM6.87887 2.4127C6.16108 3.34762 5.47319 4.28254 4.87503 5.1873C4.27686 6.0619 3.73852 6.90635 3.28989 7.69048C1.67486 10.4349 1.49541 11.6413 1.49541 12.0635C1.49541 15.0492 3.91797 17.4921 6.87887 17.4921C9.83978 17.4921 12.2623 15.0492 12.2623 12.0635C12.2623 11.6714 12.0829 10.4349 10.4678 7.69048C10.0192 6.90635 9.48088 6.0619 8.88272 5.1873C8.28455 4.28254 7.59667 3.34762 6.87887 2.4127Z" transform="translate(17.272 18.9999) scale(1 -1)" fill="#02973A"/>
<path d="M6.87887 19C3.08054 19 0 15.8937 0 12.0635C0 10.6159 1.07669 8.4746 2.00384 6.90635C2.48238 6.12222 3.02072 5.24762 3.64879 4.3127C4.4264 3.19683 5.26383 2.02063 6.19098 0.844444L6.87887 0L7.56676 0.844444C8.49391 2.02063 9.36125 3.19683 10.1089 4.3127C10.737 5.21746 11.2754 6.09206 11.7539 6.90635C12.6511 8.44444 13.7278 10.6159 13.7278 12.0635C13.7577 15.8937 10.6772 19 6.87887 19ZM6.87887 2.4127C6.16108 3.34762 5.47319 4.28254 4.87503 5.1873C4.27686 6.0619 3.73852 6.90635 3.28989 7.69048C1.67486 10.4349 1.49541 11.6413 1.49541 12.0635C1.49541 15.0492 3.91797 17.4921 6.87887 17.4921C9.83978 17.4921 12.2623 15.0492 12.2623 12.0635C12.2623 11.6714 12.0829 10.4349 10.4678 7.69048C10.0192 6.90635 9.48088 6.0619 8.88272 5.1873C8.28455 4.28254 7.59667 3.34762 6.87887 2.4127Z" transform="translate(0 18.9999) scale(1 -1)" fill="#02973A"/>
</svg>
