<svg width="27" height="27" viewBox="0 0 27 27" fill="none" xmlns="http://www.w3.org/2000/svg">
<path d="M20.1731 18.3082C21.7415 16.3356 22.6025 13.839 22.6025 11.3116C22.6025 5.08562 17.5285 5.87881e-08 11.2859 5.87881e-08C5.04328 5.87881e-08 5.86542e-08 5.08562 5.86542e-08 11.3116C5.86542e-08 17.5377 5.07403 22.6233 11.2859 22.6233C13.7768 22.6233 16.2677 21.7603 18.2665 20.1884L25.0626 27L27 25.0582L20.1731 18.3082ZM11.2859 19.9418C6.58087 19.9418 2.7369 16.089 2.7369 11.3733C2.7369 6.65753 6.58087 2.80479 11.2859 2.80479C15.9909 2.80479 19.8349 6.65753 19.8349 11.3733C19.8349 16.089 15.9909 19.9418 11.2859 19.9418Z" fill="white"/>
</svg>
