<svg width="11" height="13" viewBox="0 0 11 13" fill="none" xmlns="http://www.w3.org/2000/svg">
<path d="M10.4568 7.06284C10.9943 6.64616 11.5518 5.31799 9.90471 4.93442C8.72046 4.66101 7.92608 5.49275 7.36274 4.27022C6.84671 3.14969 8.43859 1.11703 6.70495 0.157888C6.06675 -0.195905 5.47964 0.0287826 5.54136 0.995374C5.65751 2.93264 4.46992 3.20975 3.58776 5.02138C2.74502 5.50693 2.05909 5.77356 1.21323 6.27018L0 6.28273V11.9161H1.12714L1.99718 12.1666C3.33112 12.8559 4.97679 13 6.12225 13C6.81194 13 8.20281 12.9359 8.65567 12.5786C9.16918 12.1734 9.31764 11.5236 9.3631 11.2513C10.2582 10.8973 10.4969 10.1591 10.1689 9.36025C10.5559 9.15015 10.7963 8.86938 10.8837 8.52586C11.0629 7.82652 10.5903 7.29078 10.4568 7.06284Z" fill="#828282"/>
</svg>
