<svg width="25" height="25" viewBox="0 0 25 25" fill="none" xmlns="http://www.w3.org/2000/svg">
<path d="M0.0130174 4.78545C0.0195262 4.75289 0.0325436 4.72034 0.0390523 4.68779C0.123666 4.29065 0.449102 3.98466 0.852642 3.92607C1.28873 3.86748 1.6402 4.01722 1.90706 4.35576C2.06326 4.55107 2.10232 4.77894 2.10232 5.02633C2.09581 5.92477 2.09581 6.8167 2.0893 7.70862C2.0893 7.74117 2.0893 7.77373 2.0893 7.82581C2.12835 7.79977 2.15439 7.78675 2.17391 7.76722C2.35616 7.59794 2.5384 7.42867 2.71414 7.25289C3.21531 6.74508 3.71648 6.23727 4.21765 5.72946C5.49336 4.4469 6.77558 3.17086 8.0578 1.88831C8.41578 1.53024 8.75423 1.15263 9.11221 0.80107C9.32049 0.599247 9.54829 0.416956 9.78261 0.247685C9.99089 0.0979453 10.2317 -0.00622152 10.4986 0.000288902C10.5702 0.000288902 10.6418 0.0133097 10.7068 0.032841C11.1364 0.150028 11.4879 0.63831 11.4684 1.07451C11.4619 1.23727 11.4098 1.39352 11.3187 1.51722C11.182 1.70602 11.0388 1.89482 10.8761 2.05758C9.82817 3.11227 8.77376 4.16045 7.71934 5.20862C6.63239 6.28935 5.55194 7.37659 4.46498 8.46383C4.23718 8.6917 4.00286 8.91305 3.77506 9.14742C3.70997 9.21904 3.65139 9.29716 3.57329 9.38831C3.62536 9.38831 3.64488 9.39482 3.67092 9.39482C4.48451 9.39482 5.2981 9.39482 6.10518 9.39482C6.32648 9.39482 6.54126 9.38831 6.76256 9.39482C7.17912 9.40133 7.57615 9.83753 7.66076 10.1826C7.77792 10.6774 7.45899 11.2763 6.97735 11.4326C6.90575 11.4586 6.82765 11.4716 6.74954 11.4716C4.81645 11.4716 2.88336 11.4716 0.943765 11.4716C0.833116 11.4716 0.709451 11.4391 0.605311 11.387C0.30591 11.2308 0.0911221 10.9964 0.0130174 10.6513C0.0130174 10.6448 0.00650872 10.6383 0 10.6318C0.0130174 8.68518 0.0130174 6.73206 0.0130174 4.78545Z" transform="translate(0 13.5291)" fill="white"/>
<path d="M0 0.833333C0.045561 0.664062 0.117157 0.501302 0.234314 0.364583C0.442593 0.130208 0.689924 0 1.01536 0C2.89638 0.00651042 4.7774 0 6.65842 0C7.15959 0 7.51106 0.266927 7.64124 0.755208C7.79745 1.32161 7.45899 1.92057 6.90575 2.05078C6.77558 2.08333 6.6454 2.08984 6.50872 2.08984C5.62354 2.08984 4.73835 2.08333 3.85316 2.07682C3.76204 2.07682 3.67743 2.07682 3.57329 2.07682C3.59281 2.10286 3.60583 2.1224 3.62536 2.14193C3.89872 2.42839 4.15256 2.72786 4.47149 2.97526C4.60167 3.07943 4.70581 3.20964 4.82296 3.32682C5.68862 4.21224 6.55428 5.09115 7.42645 5.97005C7.73236 6.27604 8.05129 6.5625 8.37022 6.86198C8.37672 6.86849 8.38974 6.88151 8.39625 6.88802C8.59802 7.15495 8.85186 7.36979 9.09919 7.59766C9.38558 7.86458 9.63942 8.17057 9.91929 8.44401C10.3098 8.83463 10.7068 9.20573 11.0974 9.59635C11.2666 9.76563 11.3772 9.97396 11.4358 10.2083C11.54 10.6445 11.3447 11.0742 10.9347 11.3216C10.7068 11.4648 10.466 11.4583 10.2187 11.4258C9.95183 11.3867 9.73705 11.2565 9.56131 11.0547C9.4051 10.8724 9.23588 10.6966 9.06665 10.5208C8.26608 9.71354 7.4655 8.91276 6.66493 8.11198C6.6454 8.09245 6.61937 8.06641 6.59984 8.04688C6.05962 7.58464 5.60401 7.04427 5.09633 6.55599C4.57563 6.06771 4.08097 5.56641 3.5798 5.0651C3.09164 4.58333 2.61 4.10156 2.12184 3.61979C2.11533 3.61328 2.10232 3.60677 2.08279 3.58724C2.08279 3.61979 2.07628 3.63932 2.07628 3.65885C2.07628 4.58333 2.08279 5.5013 2.08279 6.42578C2.0893 6.97266 1.7899 7.38932 1.29524 7.52604C0.755012 7.66927 0.156209 7.33724 0.0260349 6.82943C0.0195262 6.79688 0.00650872 6.75781 0 6.72526C0 4.75911 0 2.79297 0 0.833333Z" transform="translate(0.0131836 0.000488281)" fill="white"/>
<path d="M7.81477 9.35017C7.79525 9.33064 7.77572 9.3046 7.74969 9.28507C5.95979 7.46866 4.16989 5.64575 2.37999 3.82934C2.24982 3.69262 2.10012 3.57543 1.96343 3.44523C1.87882 3.3671 1.7877 3.28247 1.72261 3.19132C1.61847 3.04809 1.49481 2.93741 1.35812 2.82674C1.27351 2.75512 1.1889 2.68351 1.12381 2.59887C0.967599 2.40356 0.785355 2.23429 0.596602 2.06502C0.472936 1.94783 0.336253 1.83715 0.238622 1.69392C-0.00220065 1.35538 -0.0803051 0.971269 0.0954304 0.580644C0.225605 0.287675 0.466427 0.0728316 0.791863 0.0142378C0.980616 -0.0183143 1.18239 0.0142372 1.37114 0.0207476C1.4167 0.0207476 1.46226 0.0467899 1.50131 0.079342C1.7161 0.255123 1.93089 0.430904 2.13266 0.619706C2.32141 0.795487 2.47762 0.99731 2.65987 1.1796C3.03737 1.55721 3.4279 1.9283 3.8054 2.3059C3.9551 2.44913 4.09178 2.61189 4.23498 2.75512C4.3261 2.84627 4.43024 2.9309 4.52136 3.01554C4.59947 3.09366 4.67757 3.17179 4.75567 3.24991C4.87283 3.3671 4.98348 3.49731 5.10715 3.60148C5.23732 3.71867 5.36749 3.82934 5.47163 3.97257C5.5237 4.0507 5.5953 4.1158 5.66039 4.1809C6.01186 4.51945 6.36984 4.84497 6.7148 5.19002C7.56744 6.02335 8.42009 6.8632 9.27273 7.70304C9.29876 7.72908 9.31829 7.76814 9.33782 7.8007C9.35083 7.79419 9.35734 7.78767 9.37036 7.77465C9.37036 7.75512 9.37687 7.73559 9.37687 7.71606C9.37687 6.88273 9.37687 6.04939 9.37687 5.21606C9.37687 5.04679 9.36385 4.87101 9.38988 4.70174C9.48101 4.20044 10.0147 3.68611 10.7567 3.94653C11.0822 4.05721 11.3295 4.26554 11.4271 4.61059C11.4466 4.6757 11.4531 4.7408 11.4531 4.81241C11.4531 6.70694 11.4531 8.60148 11.4531 10.5025C11.4531 10.5676 11.4466 10.6392 11.4206 10.7043C11.2774 11.0819 11.0171 11.3424 10.6135 11.427C10.568 11.4335 10.5224 11.4335 10.4833 11.4335C8.59582 11.4335 6.70829 11.4335 4.82076 11.4335C4.41722 11.4335 4.11131 11.2642 3.91605 10.9127C3.71428 10.5546 3.72079 10.19 3.93558 9.83846C4.11782 9.53898 4.38468 9.36971 4.73615 9.3632C5.00952 9.35669 5.28939 9.3632 5.56276 9.3632C6.27872 9.3632 7.00118 9.3632 7.71714 9.3632C7.74318 9.3632 7.76921 9.3632 7.79525 9.3632C7.80827 9.3632 7.81477 9.35668 7.81477 9.35017Z" transform="translate(13.5339 13.5537)" fill="white"/>
<path d="M7.832 2.08333C7.78644 2.08333 7.76692 2.07682 7.74088 2.07682C6.90777 2.07682 6.06814 2.07682 5.23503 2.07682C5.05278 2.07682 4.87704 2.08333 4.6948 2.07682C4.22617 2.04427 3.81612 1.63411 3.80311 1.15885C3.7966 0.996094 3.7966 0.826823 3.84216 0.670573C3.95281 0.266927 4.3238 0 4.74687 0C5.5149 0 6.27642 0 7.04445 0C8.19649 0 9.34854 0 10.4941 0C10.6633 0 10.813 0.0455729 10.9497 0.136719C11.2035 0.30599 11.3923 0.520833 11.4574 0.833333C11.4639 0.878906 11.4639 0.924479 11.4639 0.970052C11.4639 2.83203 11.4639 4.6875 11.4639 6.54948C11.4639 6.83594 11.3597 7.05729 11.158 7.24609C10.6242 7.7474 9.8432 7.6237 9.48522 6.98568C9.38759 6.81641 9.37457 6.6276 9.37457 6.4388C9.37457 5.51432 9.38108 4.59635 9.38108 3.67187C9.38108 3.64583 9.38108 3.61979 9.38108 3.56771C9.34203 3.59375 9.31599 3.60677 9.29647 3.6263C9.10771 3.80859 8.91245 3.98438 8.7237 4.17318C8.46335 4.43359 8.20951 4.70052 7.94916 4.96094C6.08767 6.82292 4.22617 8.6849 2.36468 10.5469C2.17593 10.7357 1.99368 10.9375 1.80493 11.1198C1.65523 11.263 1.486 11.3997 1.27772 11.4323C0.861163 11.4974 0.184256 11.3086 0.0410645 10.7357C-0.0500576 10.3776 0.00852092 10.026 0.236326 9.72656C0.359992 9.5638 0.509693 9.41406 0.652885 9.27083C2.71615 7.20703 4.78592 5.14974 6.84919 3.08594C7.12255 2.8125 7.39592 2.52604 7.66278 2.24609C7.72786 2.20703 7.77343 2.15495 7.832 2.08333Z" transform="translate(13.5361 0.000488281)" fill="white"/>
</svg>
